<?xml version="1.0" standalone="no"?>
<!DOCTYPE svg PUBLIC "-//W3C//DTD SVG 20010904//EN"
 "http://www.w3.org/TR/2001/REC-SVG-20010904/DTD/svg10.dtd">
<svg version="1.0" xmlns="http://www.w3.org/2000/svg"
 width="152.000000pt" height="147.000000pt" viewBox="0 0 152.000000 147.000000"
 preserveAspectRatio="xMidYMid meet">
<metadata>
Created by potrace 1.10, written by Peter Selinger 2001-2011
</metadata>
<g transform="translate(0.000000,147.000000) scale(0.050000,-0.050000)"
fill="#fbf7f7" stroke="none">
<path d="M1293 2788 c-1089 -197 -1518 -1520 -744 -2296 807 -810 2154 -349
2315 793 124 875 -698 1661 -1571 1503z m247 -363 c0 -85 6 -256 13 -380 13
-221 12 -225 -30 -225 -43 0 -43 4 -43 380 0 324 4 380 30 380 24 0 30 -31 30
-155z m-422 -329 c93 -178 189 -359 213 -402 l45 -78 55 62 c69 77 87 77 153
2 76 -87 67 -96 296 340 116 219 222 399 236 400 39 0 21 -44 -169 -422 -92
-183 -167 -343 -167 -355 0 -11 -16 -30 -35 -41 -19 -12 -24 -21 -10 -21 14
-1 25 -15 25 -32 0 -17 9 -26 20 -19 11 7 20 -2 20 -20 0 -28 8 -27 55 10 73
57 666 460 677 460 57 0 -48 -98 -304 -282 -171 -124 -316 -237 -322 -251 -6
-15 -20 -21 -33 -14 -13 7 -11 0 3 -15 22 -24 28 -23 45 2 26 42 24 6 -3 -44
-17 -32 -16 -37 3 -25 18 11 22 6 13 -18 -8 -22 4 -55 34 -89 369 -424 428
-500 407 -521 -41 -41 -61 -26 -266 191 -153 161 -206 206 -219 185 -9 -16 -9
-22 0 -15 8 8 40 -23 69 -70 30 -46 69 -96 88 -111 27 -23 33 -66 33 -235 l0
-208 -240 0 -240 0 0 171 c0 116 -7 167 -21 158 -12 -7 -17 -26 -11 -41 6 -15
2 -28 -9 -28 -10 0 -19 14 -19 30 0 17 -14 30 -31 30 -17 0 -26 -8 -20 -18 6
-10 3 -39 -8 -65 -17 -44 -19 -42 -20 19 -2 122 -41 45 -41 -82 -1 -179 3
-176 -262 -170 l-228 6 -5 190 c-6 175 -2 194 40 240 210 228 137 219 -87 -10
-167 -171 -178 -178 -211 -145 -39 38 -52 17 153 245 170 189 270 317 264 337
-3 10 6 27 20 37 20 13 13 29 -30 66 -64 57 -56 65 17 18 27 -18 49 -23 49
-12 0 19 -272 227 -547 419 -89 61 -118 105 -71 105 12 0 131 -75 265 -167
412 -283 406 -280 451 -235 21 21 44 33 50 27 7 -6 12 -2 12 9 0 12 -13 32
-30 46 -16 14 -30 33 -30 43 0 9 -77 171 -170 359 -153 306 -179 379 -134 378
8 0 90 -146 182 -324z m-528 -735 c77 -10 194 -20 260 -23 142 -5 170 -13 170
-49 0 -46 -24 -47 -321 -8 -159 21 -296 38 -304 38 -8 1 -15 15 -15 31 0 34
18 35 210 11z m2070 -11 c0 -16 -2 -30 -5 -30 -3 0 -148 -18 -323 -40 -323
-39 -352 -39 -352 10 0 18 39 30 125 38 69 7 197 20 285 29 247 27 270 27 270
-7z"/>
<path d="M1834 934 c8 -35 5 -38 -12 -14 -18 26 -21 25 -22 -5 0 -19 -9 -35
-20 -35 -11 0 -21 -38 -23 -85 l-3 -85 -14 80 c-8 44 -16 68 -17 54 -2 -15
-12 -21 -24 -13 -14 8 -19 -39 -15 -142 l6 -155 160 -2 160 -2 -3 70 c-2 39
-4 109 -5 156 -2 69 -15 99 -67 150 -80 78 -114 88 -101 28z"/>
<path d="M1064 894 c-64 -66 -66 -72 -60 -216 l6 -147 160 3 160 3 -5 134 c-4
138 -55 225 -118 201 -16 -7 -21 1 -13 22 10 24 4 30 -19 21 -20 -8 -35 -1
-39 17 -4 22 -24 12 -72 -38z"/>
</g>
</svg>
